<?xml version="1.0" standalone="no"?>
<!DOCTYPE svg PUBLIC "-//W3C//DTD SVG 20010904//EN"
 "http://www.w3.org/TR/2001/REC-SVG-20010904/DTD/svg10.dtd">
<svg version="1.0" xmlns="http://www.w3.org/2000/svg"
 width="617.000000pt" height="617.000000pt" viewBox="0 0 617.000000 617.000000"
 preserveAspectRatio="xMidYMid meet">
<metadata>
Created by potrace 1.14, written by Peter Selinger 2001-2017
</metadata>
<g transform="translate(0.000000,617.000000) scale(0.100000,-0.100000)"
fill="#000000" stroke="none">
<path d="M2889 6166 c-2 -2 -43 -6 -90 -10 -47 -4 -95 -8 -105 -10 -10 -2 -41
-7 -69 -10 -27 -4 -72 -11 -100 -16 -27 -6 -59 -12 -70 -14 -11 -2 -67 -16
-125 -30 -790 -199 -1471 -706 -1895 -1411 -54 -89 -160 -298 -198 -390 -69
-167 -161 -474 -183 -610 -3 -22 -7 -42 -9 -45 -2 -3 -7 -37 -10 -75 -4 -39
-8 -72 -10 -75 -18 -30 -27 -544 -12 -680 16 -138 27 -213 53 -340 9 -41 17
-84 20 -95 5 -26 32 -121 45 -160 6 -16 12 -37 14 -45 22 -88 110 -301 190
-462 56 -110 175 -313 212 -358 6 -8 39 -53 73 -98 103 -141 305 -359 426
-462 16 -14 56 -47 89 -75 131 -111 349 -255 535 -352 198 -104 544 -230 730
-267 14 -2 57 -11 95 -20 39 -8 97 -18 130 -21 33 -4 62 -9 65 -10 3 -2 50 -7
105 -11 177 -15 581 -9 684 11 9 1 39 6 66 9 211 28 466 99 710 196 154 61
427 206 522 276 17 13 34 24 38 24 3 0 11 5 18 10 7 6 55 42 107 81 321 241
618 574 809 909 24 41 49 86 57 100 64 109 204 450 237 575 3 11 14 54 26 95
21 80 47 200 56 265 3 22 10 65 15 95 31 186 34 704 5 820 -2 8 -6 38 -10 65
-31 257 -143 619 -278 895 -70 144 -240 422 -303 497 -11 12 -30 37 -44 55
-113 148 -325 363 -485 490 -96 77 -336 248 -348 248 -2 0 -42 22 -88 48 -229
131 -599 274 -824 318 -11 2 -42 8 -70 14 -27 5 -66 12 -85 15 -19 3 -46 7
-60 10 -14 2 -47 7 -75 10 -27 4 -63 9 -80 11 -39 5 -501 14 -506 10z"/>
</g>
</svg>
