<svg width="89" height="39" viewBox="0 0 89 39" fill="none" xmlns="http://www.w3.org/2000/svg">
<g clip-path="url(#clip0_4_2575)">
<path d="M58.6797 10.2397H43.7488C43.622 10.2397 43.5003 10.2909 43.4106 10.382C43.3209 10.473 43.2705 10.5965 43.2705 10.7253V11.8931C43.2705 12.0219 43.3209 12.1454 43.4106 12.2365C43.5003 12.3276 43.622 12.3787 43.7488 12.3787H54.8728V18.6351C54.5539 18.1692 54.1996 17.7291 53.8134 17.3188C52.501 15.9544 51.0976 15.2641 49.635 15.2641C48.4728 15.2641 47.4806 15.83 46.682 16.9456C46.0565 17.7846 45.6954 18.796 45.6463 19.8471C45.6 21.0518 45.9143 22.2424 46.5476 23.2622C46.9532 23.8648 47.504 24.352 48.1475 24.6772C48.7911 25.0025 49.5059 25.155 50.224 25.1203C51.9476 25.1203 53.3509 23.8923 53.3509 22.3834C53.3541 21.9408 53.2351 21.5062 53.0073 21.1288C52.7795 20.7514 52.4521 20.4464 52.0622 20.2484L51.2439 19.7628V20.7179C51.2412 20.7814 51.2332 20.8445 51.2202 20.9066L51.1965 21.0269C51.0774 21.2863 50.8891 21.5065 50.6529 21.6626C50.4167 21.8186 50.1421 21.9043 49.8603 21.9098C49.5934 21.9127 49.3286 21.8621 49.0809 21.7609C48.8333 21.6597 48.6079 21.5098 48.4174 21.3199C48.1863 21.0418 48.0702 20.6837 48.0933 20.3206C48.1153 19.8686 48.2819 19.4361 48.5677 19.0886C48.7173 18.8834 48.913 18.7173 49.1385 18.6043C49.364 18.4912 49.6128 18.4344 49.8643 18.4385C51.3546 18.4024 52.6314 19.1448 53.6118 20.6457C54.3827 21.7567 54.8106 23.0754 54.8412 24.4341L54.8728 27.5924L57.0708 28.9929C57.1426 29.036 57.2241 29.0595 57.3075 29.061C57.3909 29.0626 57.4733 29.0421 57.5466 29.0017C57.6198 28.9613 57.6815 28.9022 57.7256 28.8304C57.7697 28.7585 57.7947 28.6762 57.7981 28.5916V12.3787H58.6797C58.7425 12.3787 58.8047 12.3662 58.8627 12.3418C58.9208 12.3174 58.9735 12.2816 59.0179 12.2365C59.0623 12.1914 59.0976 12.1379 59.1216 12.079C59.1456 12.0201 59.158 11.9569 59.158 11.8931V10.7253C59.158 10.6616 59.1456 10.5984 59.1216 10.5395C59.0976 10.4806 59.0623 10.4271 59.0179 10.382C58.9735 10.3369 58.9208 10.3011 58.8627 10.2767C58.8047 10.2523 58.7425 10.2397 58.6797 10.2397" fill="#EB2127"/>
<path d="M88.5219 10.2397H69.5747C69.5119 10.2397 69.4497 10.2523 69.3916 10.2767C69.3336 10.3011 69.2809 10.3369 69.2364 10.382C69.192 10.427 69.1568 10.4806 69.1328 10.5395C69.1087 10.5984 69.0963 10.6615 69.0963 10.7253V12.8523C67.2858 10.8939 65.6493 9.93072 64.1194 9.91868C62.8343 9.84778 61.565 10.2338 60.53 11.0102C60.0716 11.3283 59.6944 11.7526 59.4297 12.2481C59.1651 12.7436 59.0205 13.296 59.0081 13.8595C59.0081 17.2265 62.7161 17.1904 63.6332 16.6687C63.8163 16.543 64.0292 16.4695 64.2499 16.456C64.3925 16.4517 64.5344 16.4785 64.666 16.5346C64.7975 16.5908 64.9157 16.675 65.0124 16.7816C65.1091 16.8881 65.1821 17.0145 65.2265 17.1522C65.2709 17.2899 65.2857 17.4357 65.2698 17.5797C65.2698 18.3622 64.1668 19.0244 62.8663 19.0244C62.1468 19.0244 61.6803 18.8157 61.3839 18.3823L60.8067 17.4914L60.4114 18.4826C60.2828 18.7637 60.2102 19.0679 60.1979 19.3775C60.2152 19.7945 60.3231 20.2025 60.5137 20.5723C60.7044 20.942 60.9732 21.2645 61.3009 21.5165C61.9725 22.0886 62.8237 22.3975 63.7004 22.3874C64.3388 22.4148 64.9746 22.288 65.5553 22.0173C66.136 21.7466 66.6451 21.3397 67.0407 20.8303C67.6757 19.9854 68.0101 18.9472 67.9895 17.8847C67.9613 17.1568 67.7113 16.4557 67.274 15.8781C66.6731 15.0033 65.9457 14.5578 65.1077 14.5578C64.75 14.5854 64.3969 14.6568 64.0562 14.7705C63.8965 14.8211 63.7341 14.8626 63.5699 14.8949C63.3616 14.8726 63.1695 14.7707 63.0323 14.61C62.9375 14.5144 62.8624 14.4006 62.8115 14.2751C62.7606 14.1497 62.7349 14.0153 62.7358 13.8796C62.7674 13.0449 63.4909 12.2102 64.827 12.2102H64.8863C65.752 12.2102 66.6336 12.6516 67.4954 13.4903C68.129 14.0895 68.663 14.7888 69.0766 15.5611V27.5241L71.2824 28.8444C71.3559 28.8912 71.4408 28.9162 71.5275 28.9167C71.6544 28.9167 71.776 28.8655 71.8657 28.7745C71.9554 28.6834 72.0058 28.5599 72.0058 28.4311V12.3787H75.3818V22.7606L78.0699 23.8562C78.1261 23.8804 78.1867 23.8927 78.2478 23.8923C78.3641 23.8914 78.4761 23.8478 78.5633 23.7696C78.6505 23.6915 78.7069 23.5839 78.7221 23.4669V23.3866C79.1807 20.3327 80.4931 18.2097 82.7187 16.9376C82.7187 17.1142 82.7187 17.3028 82.7187 17.5034C82.7187 17.9248 82.7464 19.0565 82.7741 19.6785C82.7938 20.0237 82.8057 20.2925 82.8373 20.4812C82.8484 21.9538 83.041 23.4193 83.4105 24.8434C84.13 27.4278 85.3871 28.0017 86.32 28.0258H86.3793C86.8264 28.0616 87.2694 27.9174 87.6126 27.6245C87.7364 27.4968 87.8332 27.3448 87.8971 27.1778C87.961 27.0108 87.9907 26.8323 87.9842 26.6533C88.0051 26.2696 87.9331 25.8866 87.7747 25.5376L87.5731 25.1644L87.1778 25.2648C86.9608 25.336 86.7339 25.3713 86.5058 25.3691H86.4267C86.3487 25.3775 86.2703 25.3576 86.2053 25.3129C86.0591 25.2367 85.7824 24.9838 85.5649 24.1652C85.4333 23.5477 85.3605 22.9187 85.3475 22.287C85.3475 18.9361 86.0314 16.3998 87.0869 15.8219L87.1422 15.7939C87.2206 15.7538 87.2864 15.6924 87.3325 15.6166C87.3786 15.5408 87.403 15.4535 87.4031 15.3645C87.4036 15.2835 87.3846 15.2036 87.3478 15.1317L87.3162 15.0715C86.7825 14.0441 85.7112 13.2857 84.209 12.8803L84.0904 12.8482L83.9718 12.8683C82.8096 13.077 81.3826 13.8997 79.6234 15.3845C79.1649 15.7858 78.7419 16.155 78.3505 16.5323V12.3787H88.5377C88.6645 12.3787 88.7862 12.3276 88.8759 12.2365C88.9656 12.1454 89.016 12.0219 89.016 11.8931V10.7253C89.016 10.5965 88.9656 10.473 88.8759 10.382C88.7862 10.2909 88.6645 10.2397 88.5377 10.2397" fill="#EB2127"/>
<path d="M44.7725 33.4073V34.3383L45.5632 34.0173L45.8003 34.246C45.815 34.3335 45.823 34.4221 45.8241 34.5109C45.838 34.7903 45.746 35.0646 45.5671 35.2774C45.472 35.3775 45.3567 35.4555 45.2291 35.5061C45.1015 35.5567 44.9646 35.5786 44.8279 35.5703C44.6641 35.5678 44.5026 35.5308 44.3536 35.4617C44.2046 35.3927 44.0713 35.293 43.9622 35.169C43.7413 34.9155 43.5733 34.6193 43.468 34.2982L43.6815 34.1537C43.9582 34.9282 44.3496 35.3135 44.8674 35.3135C44.9589 35.314 45.0495 35.295 45.1332 35.2577C45.217 35.2203 45.2921 35.1655 45.3536 35.0968C45.4183 35.0309 45.4694 34.9526 45.504 34.8665C45.5386 34.7804 45.556 34.6882 45.5553 34.5952C45.5556 34.5112 45.5394 34.428 45.5078 34.3504L44.8042 34.6634L44.5275 34.4427V33.4073H43.2822V33.1665H46.0257V33.4073H44.7725Z" fill="#231F20"/>
<path d="M46.5357 33.4113V35.5663H46.259V33.4113H45.915V33.1665H46.8559V33.4113H46.5357Z" fill="#231F20"/>
<path d="M48.366 33.4073V33.5558C48.5837 33.555 48.7968 33.6192 48.9788 33.7404C49.0744 33.7917 49.1551 33.8677 49.2127 33.9606C49.2703 34.0536 49.3028 34.1604 49.3069 34.2701C49.3061 34.3483 49.2875 34.4252 49.2525 34.4948C49.2175 34.5644 49.1671 34.6249 49.1053 34.6714C48.9799 34.773 48.8228 34.8256 48.6625 34.8199H48.5993V34.547H48.7416C48.7823 34.5536 48.8241 34.5505 48.8634 34.5378C48.9028 34.5252 48.9387 34.5034 48.9682 34.4741C48.9978 34.4449 49.0202 34.409 49.0337 34.3694C49.0472 34.3298 49.0514 34.2876 49.046 34.246C49.046 34.0012 48.8206 33.8447 48.366 33.8166V35.5543H48.1051C47.99 35.3175 47.8333 35.104 47.6426 34.9242C47.4599 34.7382 47.2169 34.6255 46.9587 34.6072L46.8718 34.2781C47.0339 34.1577 47.4371 33.9129 48.0854 33.5357V33.4073H46.7729V33.1665H49.4927V33.4073H48.366ZM48.0854 33.8608C47.9414 33.9202 47.808 34.0028 47.6901 34.1056L47.3303 34.4106C47.4793 34.4971 47.6129 34.6083 47.7256 34.7396C47.7849 34.8119 47.9035 34.9523 48.0854 35.1409V33.8608Z" fill="#231F20"/>
<path d="M53.173 32.7492C52.8257 32.4918 52.4155 32.3363 51.987 32.2998C51.7416 32.2877 51.4998 32.3629 51.3031 32.5125C51.2098 32.5921 51.136 32.6926 51.0873 32.8061C51.0386 32.9196 51.0164 33.043 51.0225 33.1666H51.311V33.4074H51.0225V35.5544H50.7378V33.4074H50.4453V33.1666H50.7378C50.7299 33.0067 50.7591 32.8472 50.8229 32.7008C50.8868 32.5545 50.9835 32.4253 51.1055 32.3238C51.3582 32.1257 51.6719 32.0247 51.991 32.0389C52.2306 32.0416 52.4673 32.0935 52.6867 32.1914C52.9057 32.2956 53.1159 32.4177 53.3153 32.5566L53.173 32.7492Z" fill="#231F20"/>
<path d="M53.3864 33.4073V35.5663H53.1335C52.9411 35.2999 52.6855 35.0873 52.3903 34.9483C52.109 34.7709 51.791 34.6624 51.4613 34.6313L51.3743 34.2982C51.635 34.1227 51.9149 33.9786 52.2084 33.8688L53.1176 33.5197V33.4073H51.1846V33.1665H53.679V33.4073H53.3864ZM53.1176 33.8367C52.6801 34.0013 52.2513 34.1889 51.8329 34.3985C52.3039 34.5642 52.7398 34.8188 53.1176 35.149V33.8367Z" fill="#231F20"/>
<path d="M53.5762 33.1665H56.2485V33.4073H53.5762V33.1665ZM55.0902 35.5543C54.9299 35.5516 54.772 35.5144 54.6268 35.4453C54.4817 35.3761 54.3526 35.2765 54.2482 35.153C54.0276 34.9072 53.8653 34.6134 53.7738 34.2942L53.9399 34.1176C54.0248 34.399 54.1587 34.6627 54.3352 34.8961C54.4176 35.0156 54.5262 35.114 54.6524 35.1836C54.7786 35.2532 54.919 35.2922 55.0625 35.2975C55.1567 35.3005 55.2502 35.2814 55.3359 35.2417C55.4216 35.202 55.4972 35.1428 55.5567 35.0687C55.6776 34.9185 55.7408 34.7289 55.7346 34.535C55.5791 34.657 55.3895 34.7259 55.193 34.7316C55.022 34.7362 54.8561 34.6728 54.7305 34.555C54.6652 34.5015 54.6127 34.4335 54.5771 34.3564C54.5415 34.2792 54.5237 34.1948 54.5249 34.1096C54.5201 34.033 54.5305 33.9561 54.5557 33.8837C54.5808 33.8113 54.6201 33.7448 54.6712 33.6882C54.7232 33.6363 54.785 33.5956 54.853 33.5687C54.9209 33.5418 54.9936 33.5292 55.0665 33.5317C55.1795 33.5273 55.2908 33.5612 55.3827 33.628C55.4244 33.6612 55.4575 33.704 55.4796 33.7529C55.5016 33.8018 55.5117 33.8553 55.5092 33.9089C55.5045 33.9637 55.4887 34.0169 55.4629 34.0652C55.437 34.1135 55.4017 34.156 55.359 34.1898L55.1693 34.0454C55.1989 34.0311 55.2238 34.0083 55.2407 33.9797C55.2576 33.9511 55.2657 33.9181 55.2642 33.8848C55.2642 33.7966 55.2088 33.7484 55.0942 33.7484C55.053 33.7478 55.0122 33.7557 54.9742 33.7715C54.9361 33.7874 54.9016 33.8109 54.8728 33.8407C54.8135 33.9031 54.7808 33.9867 54.7819 34.0735C54.7801 34.1266 54.7903 34.1795 54.8115 34.2282C54.8327 34.2768 54.8645 34.32 54.9044 34.3544C54.9421 34.3913 54.9867 34.4203 55.0356 34.4396C55.0845 34.4589 55.1366 34.4681 55.189 34.4667C55.3009 34.4655 55.4113 34.4402 55.5128 34.3925C55.6144 34.3448 55.7048 34.2757 55.7781 34.1898L56.035 34.4587C56.0437 34.7362 55.9523 35.0073 55.7781 35.2212C55.6934 35.3281 55.5854 35.4135 55.4625 35.4706C55.3397 35.5277 55.2055 35.555 55.0704 35.5503" fill="#231F20"/>
<path d="M56.7979 33.4113V35.5663H56.5212V33.4113H56.1772V33.1665H57.1181V33.4113H56.7979Z" fill="#231F20"/>
<path d="M58.1739 35.7228C57.9551 35.751 57.7338 35.6952 57.5533 35.5663C57.36 35.3588 57.2406 35.0917 57.2141 34.8073C57.1876 34.523 57.2555 34.2378 57.407 33.9972C57.5421 33.7881 57.6942 33.5907 57.8616 33.4073H57.0315V33.1665H58.3637V33.4073C58.125 33.5092 57.9175 33.6741 57.7628 33.8848C57.5888 34.0868 57.4884 34.3432 57.4782 34.6112C57.4782 35.1931 57.7154 35.4821 58.1898 35.4821C58.2687 35.4781 58.344 35.447 58.4032 35.3938V35.6747C58.3323 35.7112 58.2535 35.7291 58.1739 35.7269" fill="#231F20"/>
<path d="M59.9644 33.4074V35.5343H59.6916V34.1217C59.669 34.0291 59.6287 33.9418 59.573 33.8649C59.5097 33.7386 59.4137 33.6323 59.2953 33.5573C59.1769 33.4824 59.0406 33.4416 58.901 33.4395C58.79 33.4457 58.6854 33.4945 58.6085 33.5759C58.5536 33.634 58.4955 33.689 58.4345 33.7405C58.5303 33.7009 58.6318 33.6779 58.735 33.6723C58.8559 33.6684 58.9749 33.7036 59.0749 33.7726C59.1238 33.8071 59.1635 33.8534 59.1904 33.9074C59.2173 33.9613 59.2306 34.0212 59.2291 34.0816C59.2262 34.2584 59.1601 34.428 59.0433 34.5592C58.9326 34.6993 58.7864 34.8061 58.6203 34.8682L58.4385 34.6354C58.5651 34.5877 58.6798 34.5124 58.7745 34.4147C58.8263 34.3733 58.8695 34.3218 58.9014 34.2632C58.9333 34.2046 58.9533 34.1401 58.9603 34.0736C58.9603 34.0094 58.8852 33.9532 58.735 33.913C58.6343 33.886 58.5308 33.8711 58.4266 33.8689C58.394 33.8629 58.3605 33.8629 58.3278 33.8689L58.1895 33.604C58.2825 33.4953 58.3844 33.3947 58.4938 33.3031C58.6067 33.2131 58.7457 33.1637 58.8892 33.1626C59.0524 33.1677 59.2114 33.2163 59.3502 33.3037C59.489 33.3911 59.6027 33.514 59.6798 33.6602V33.1666H60.2569V33.4074H59.9644Z" fill="#231F20"/>
<path d="M62.3404 33.4073V35.5663H62.0874C61.8972 35.3042 61.6477 35.0923 61.36 34.9483C61.0837 34.7786 60.7726 34.6756 60.4508 34.6473L60.3639 34.3183C60.8966 33.9876 61.4641 33.7184 62.0558 33.5156V33.4073H60.1702V33.1665H62.5855V33.4073H62.3404ZM62.0637 33.8407C61.629 33.9913 61.2104 34.1862 60.8145 34.4226C61.2746 34.5793 61.6993 34.8276 62.0637 35.153V33.8407ZM61.3403 35.6466C61.2229 35.5358 61.0896 35.4438 60.945 35.3737L61.0675 35.149C61.2368 35.2229 61.388 35.3339 61.5103 35.474L61.3403 35.6466Z" fill="#231F20"/>
<path d="M66.2896 32.7492C65.9423 32.4918 65.5321 32.3363 65.1036 32.2998C64.8569 32.2871 64.6136 32.3623 64.4158 32.5125C64.3225 32.5921 64.2486 32.6926 64.1999 32.8061C64.1512 32.9196 64.1291 33.043 64.1351 33.1666H64.4356V33.4074H64.147V35.5544H63.8663V33.4074H63.5698V33.1666H63.8663C63.8585 33.0071 63.8873 32.848 63.9505 32.7018C64.0136 32.5555 64.1093 32.4262 64.23 32.3238C64.4827 32.1257 64.7964 32.0247 65.1155 32.0389C65.3564 32.0417 65.5944 32.0935 65.8152 32.1914C66.0332 32.2974 66.2433 32.4194 66.4437 32.5566L66.2896 32.7492Z" fill="#231F20"/>
<path d="M65.8031 33.4073V34.3383L66.5937 34.0173L66.8309 34.246C66.8425 34.3339 66.8491 34.4223 66.8506 34.5109C66.866 34.7898 66.7755 35.0642 66.5976 35.2774C66.5026 35.3775 66.3873 35.4555 66.2596 35.5061C66.132 35.5567 65.9952 35.5786 65.8584 35.5703C65.6943 35.5698 65.5322 35.5337 65.3829 35.4645C65.2336 35.3953 65.1006 35.2946 64.9927 35.169C64.7705 34.9158 64.6011 34.6196 64.4946 34.2982L64.712 34.1537C64.9848 34.9282 65.3761 35.3135 65.8979 35.3135C65.9888 35.3137 66.0787 35.2945 66.1618 35.2572C66.2449 35.2199 66.3193 35.1652 66.3802 35.0968C66.4461 35.0316 66.4983 34.9536 66.5337 34.8674C66.569 34.7812 66.5867 34.6885 66.5858 34.5952C66.5861 34.5112 66.57 34.428 66.5383 34.3504L65.8347 34.6634L65.558 34.4427V33.4073H64.3127V33.1665H67.0522V33.4073H65.8031Z" fill="#231F20"/>
<path d="M69.6615 32.7493C69.3136 32.4932 68.9037 32.3379 68.4756 32.2999C68.2289 32.2872 67.9856 32.3624 67.7878 32.5126C67.6945 32.5922 67.6206 32.6928 67.5719 32.8062C67.5232 32.9197 67.501 33.0431 67.5071 33.1667H67.7957V33.4075H67.5071V35.5545H67.2225V33.4075H66.9299V33.1667H67.2225C67.2152 33.0069 67.2446 32.8476 67.3084 32.7013C67.3722 32.5551 67.4686 32.4259 67.5901 32.324C67.8441 32.1252 68.1592 32.0242 68.4795 32.039C68.7214 32.045 68.9595 32.101 69.1792 32.2036C69.3973 32.3095 69.6074 32.4316 69.8078 32.5688L69.6615 32.7493Z" fill="#231F20"/>
<path d="M69.4559 33.4073C69.4919 33.542 69.5744 33.659 69.6883 33.7371C69.8023 33.8152 69.94 33.8491 70.0766 33.8327C70.1186 33.8366 70.161 33.8366 70.203 33.8327L70.4126 34.0935C70.28 34.3249 70.1965 34.5819 70.1675 34.848C70.144 35.099 70.1892 35.3517 70.2979 35.5784L70.1121 35.6787C69.9806 35.4826 69.9129 35.2497 69.9184 35.0125C69.9184 34.8641 69.9343 34.716 69.9659 34.5711C69.9659 34.5109 70.0212 34.3544 70.0924 34.1136C69.8855 34.0902 69.6873 34.0158 69.5152 33.8969C69.43 33.8421 69.3563 33.7705 69.2986 33.6865C69.2409 33.6024 69.2003 33.5075 69.1792 33.4073C69.0554 33.4778 68.9504 33.5779 68.8732 33.6988C68.7961 33.8198 68.7491 33.958 68.7365 34.1016C68.7365 34.2661 68.8037 34.3464 68.9341 34.3464C69.0108 34.3441 69.0856 34.322 69.1515 34.2821C69.2177 34.2465 69.2736 34.1939 69.3136 34.1296H69.5745C69.6437 34.2728 69.6737 34.4322 69.6615 34.5912C69.6615 35.1409 69.3808 35.3938 68.8155 35.3938C68.7012 35.3915 68.589 35.3627 68.4874 35.3095C68.4439 35.3095 68.3451 35.2292 68.1988 35.1369C68.0526 35.0446 67.9854 34.7597 67.8312 34.4467L67.9893 34.2942C68.0872 34.5521 68.2217 34.7941 68.3886 35.0125V35.0125L68.5783 35.1088C68.6419 35.1428 68.7121 35.1619 68.7839 35.165C68.9257 35.1656 69.0641 35.1207 69.1792 35.0366C69.2386 34.9893 69.2859 34.9281 69.3169 34.8582C69.3478 34.7883 69.3616 34.7118 69.3571 34.6353C69.3577 34.5521 69.3328 34.4708 69.2859 34.4025C69.2335 34.469 69.1674 34.5232 69.0923 34.5613C69.0173 34.5994 68.935 34.6205 68.8511 34.6233C68.7881 34.6272 68.7251 34.6158 68.6673 34.59C68.6095 34.5641 68.5587 34.5246 68.519 34.4748C68.4373 34.367 68.3953 34.2335 68.4004 34.0975C68.421 33.8487 68.5209 33.6134 68.6851 33.4274H67.6138V33.1665H70.5667V33.4073H69.4559Z" fill="#231F20"/>
<path d="M71.045 33.4073V35.2934H71.1952C71.4405 35.2971 71.6823 35.2333 71.8949 35.1088C72.1716 34.9563 72.3139 34.7717 72.3139 34.551C72.3139 34.3303 72.1953 34.1778 71.9621 34.1778C71.8352 34.2016 71.7143 34.2507 71.6063 34.3223L71.4996 34.0734C71.6668 33.9533 71.8679 33.8913 72.0728 33.8969C72.1495 33.8941 72.2257 33.9106 72.2947 33.9449C72.3637 33.9792 72.4232 34.0302 72.4681 34.0935C72.5562 34.2214 72.6006 34.375 72.5946 34.5309C72.5902 34.6588 72.5569 34.7839 72.4972 34.8967C72.4376 35.0094 72.3532 35.1067 72.2507 35.1811C72.0565 35.3432 71.8255 35.4536 71.5786 35.5021C71.3083 35.5477 71.0342 35.5665 70.7603 35.5583V33.4073H70.5271V33.1665H72.2032V33.0902C72.2062 33.0119 72.1897 32.934 72.1552 32.8638C72.1206 32.7937 72.0691 32.7335 72.0056 32.6889C71.885 32.5935 71.7354 32.5438 71.5826 32.5485C71.2907 32.5761 71.0092 32.6723 70.7603 32.8294L70.6773 32.6327C70.9542 32.4406 71.279 32.3321 71.6142 32.3197C71.8416 32.3156 72.0616 32.402 72.2269 32.5605C72.31 32.6352 72.3761 32.7274 72.4204 32.8307C72.4648 32.934 72.4865 33.0458 72.4839 33.1585H72.8001V33.4073H71.045Z" fill="#231F20"/>
<path d="M73.3616 33.4113V35.5663H73.0849V33.4113H72.7371V33.1665H73.6779V33.4113H73.3616Z" fill="#231F20"/>
<path d="M76.1327 33.4073V35.5623H75.8757C75.8757 35.5142 75.8757 35.4379 75.8757 35.3416C75.8757 35.2453 75.8757 35.169 75.8757 35.1169C75.8757 34.6112 75.7492 34.3584 75.4804 34.3584C75.4329 34.3599 75.3865 34.3731 75.3452 34.3969C75.3039 34.4206 75.2689 34.4543 75.2432 34.4948C75.1853 34.5732 75.1497 34.6662 75.1404 34.7637H74.8202C74.8151 34.6598 74.7808 34.5596 74.7214 34.4748C74.6937 34.4306 74.6559 34.394 74.6111 34.3682C74.5663 34.3423 74.516 34.3279 74.4645 34.3263C74.41 34.3245 74.3561 34.3368 74.3077 34.3621C74.2592 34.3874 74.218 34.4248 74.1877 34.4708C74.1268 34.5646 74.0964 34.6755 74.1008 34.7878C74.1008 35.0567 74.2549 35.1891 74.5712 35.1891H74.7135L74.6226 35.47H74.5159C74.424 35.473 74.3325 35.4562 74.2474 35.421C74.1622 35.3857 74.0854 35.3327 74.0217 35.2654C73.9024 35.1208 73.8369 34.9383 73.8369 34.7497C73.8369 34.5611 73.9024 34.3785 74.0217 34.234C74.086 34.1666 74.1637 34.1139 74.2495 34.0793C74.3354 34.0447 74.4275 34.0291 74.5198 34.0333C74.6321 34.0411 74.7402 34.0795 74.8327 34.1445C74.9253 34.2095 74.9988 34.2986 75.0456 34.4025C75.2076 34.1577 75.3697 34.0333 75.5397 34.0333C75.7097 34.0333 75.8006 34.1497 75.8955 34.3785V33.4073H73.6106V33.1665H76.4252V33.4073H76.1327Z" fill="#231F20"/>
<path d="M77.8126 34.6113C77.8114 34.7693 77.8452 34.9257 77.9115 35.0687C77.9361 35.1435 77.9818 35.2092 78.0429 35.2577C78.1041 35.3063 78.178 35.3355 78.2554 35.3416C78.328 35.3411 78.3992 35.3203 78.4609 35.2814L78.5479 35.5262C78.4639 35.5761 78.3684 35.6024 78.2712 35.6025C77.8047 35.6025 77.5754 35.2333 77.5754 34.4949C77.5754 34.0936 77.8363 33.6521 78.3661 33.1746H78.7614V33.4073C78.6265 33.4291 78.4973 33.4779 78.3812 33.5509C78.2651 33.624 78.1646 33.7198 78.0854 33.8327C77.9123 34.0493 77.8187 34.3203 77.8205 34.5992" fill="#231F20"/>
<path d="M81.0939 33.4073V35.5623H80.833C80.833 35.5142 80.833 35.4379 80.833 35.3416C80.833 35.2453 80.833 35.169 80.833 35.1169C80.833 34.6112 80.7013 34.3584 80.4377 34.3584C80.3902 34.3595 80.3436 34.3726 80.3023 34.3964C80.2609 34.4202 80.2259 34.454 80.2005 34.4948C80.1426 34.5732 80.1071 34.6662 80.0978 34.7637H79.7775C79.7729 34.6591 79.737 34.5583 79.6748 34.4748C79.6483 34.4305 79.6112 34.3936 79.567 34.3677C79.5228 34.3417 79.4728 34.3275 79.4218 34.3263C79.3668 34.3246 79.3123 34.3369 79.2633 34.3621C79.2142 34.3874 79.1722 34.4247 79.1411 34.4708C79.0832 34.5658 79.0543 34.6761 79.0581 34.7878C79.0581 35.0567 79.2123 35.1891 79.5285 35.1891H79.6273L79.5364 35.47H79.4297C79.3377 35.4735 79.2461 35.457 79.1609 35.4217C79.0757 35.3864 78.9989 35.3331 78.9355 35.2654C78.8162 35.1208 78.7508 34.9383 78.7508 34.7497C78.7508 34.5611 78.8162 34.3785 78.9355 34.234C78.9998 34.1666 79.0775 34.1139 79.1634 34.0793C79.2492 34.0447 79.3413 34.0291 79.4336 34.0333C79.5458 34.0415 79.6537 34.0801 79.7462 34.145C79.8387 34.2099 79.9123 34.2989 79.9594 34.4025C80.1175 34.1577 80.2836 34.0333 80.4535 34.0333C80.6235 34.0333 80.7105 34.1497 80.8054 34.3785V33.4073H78.5244V33.1665H81.339V33.4073H81.0939Z" fill="#231F20"/>
<path d="M83.4775 33.4073V35.5623H83.1968V35.4138C83.1848 35.2826 83.1468 35.1552 83.0849 35.0393C83.0231 34.9235 82.9388 34.8215 82.8371 34.7396C82.6634 34.5385 82.4197 34.4133 82.1571 34.3905C82.0597 34.3897 81.9654 34.4254 81.8923 34.4908C81.8569 34.5215 81.8287 34.5597 81.8096 34.6027C81.7905 34.6457 81.7809 34.6925 81.7816 34.7396C81.7795 34.7874 81.7877 34.8351 81.8054 34.8794C81.8231 34.9237 81.8501 34.9637 81.8844 34.9965C81.9554 35.0601 82.0466 35.0957 82.1413 35.0968C82.2038 35.0946 82.2654 35.081 82.3232 35.0567L82.4062 35.3215C82.2974 35.3674 82.1799 35.3879 82.0623 35.3817C81.9869 35.3809 81.9126 35.3636 81.8444 35.3311C81.7762 35.2985 81.7157 35.2515 81.6669 35.1931C81.5614 35.0711 81.5038 34.914 81.5049 34.7517C81.5028 34.6663 81.5178 34.5813 81.5491 34.502C81.5803 34.4226 81.6272 34.3506 81.6867 34.2902C81.7437 34.2297 81.8125 34.182 81.8888 34.1502C81.965 34.1184 82.047 34.1032 82.1295 34.1056C82.3565 34.1212 82.5755 34.1968 82.7648 34.325C82.9541 34.4531 83.1071 34.6292 83.2087 34.836V33.4073H81.2795V33.1665H83.7265V33.4073H83.4775Z" fill="#231F20"/>
<path d="M84.7743 35.7228C84.5554 35.751 84.3341 35.6952 84.1536 35.5663C84.0401 35.4449 83.9513 35.302 83.8922 35.1456C83.8332 34.9893 83.8052 34.8227 83.8097 34.6554C83.8162 34.4219 83.8845 34.1946 84.0074 33.9972C84.1438 33.789 84.2958 33.5918 84.462 33.4073H83.6318V33.1665H84.964V33.4073C84.7248 33.5101 84.5162 33.6747 84.3592 33.8848C84.1904 34.0865 84.0918 34.3389 84.0785 34.6032C84.0785 35.1851 84.3157 35.474 84.7901 35.474C84.8691 35.4701 84.9444 35.439 85.0036 35.3857V35.6667C84.9324 35.7027 84.8537 35.7206 84.7743 35.7188" fill="#231F20"/>
<path d="M85.0785 33.4073V34.3704C85.4268 34.133 85.7976 33.9314 86.1853 33.7685L86.4541 34.1296C86.3379 34.3822 86.2682 34.6542 86.2486 34.9323C86.2548 35.1412 86.2963 35.3475 86.3711 35.5423L86.1656 35.6386C86.0856 35.4508 86.0336 35.252 86.0114 35.0486C86.0127 34.748 86.0432 34.4483 86.1023 34.1537C85.7133 34.335 85.3524 34.5729 85.031 34.86L84.8018 34.6393V33.4073H84.5962V33.1665H86.6558V33.4073H85.0785Z" fill="#231F20"/>
<path d="M88.747 33.4073V35.5623H88.4703V35.4138C88.4575 35.2828 88.419 35.1558 88.3573 35.04C88.2955 34.9242 88.2116 34.8221 88.1106 34.7396C87.9349 34.5389 87.6902 34.4139 87.4267 34.3905C87.3293 34.3897 87.2349 34.4254 87.1619 34.4908C87.1265 34.5215 87.0983 34.5597 87.0792 34.6027C87.06 34.6457 87.0505 34.6925 87.0512 34.7396C87.0501 34.7873 87.0587 34.8347 87.0764 34.8789C87.094 34.923 87.1204 34.9631 87.1539 34.9965C87.225 35.0601 87.3162 35.0957 87.4109 35.0968C87.4746 35.0942 87.5375 35.0807 87.5967 35.0567L87.6757 35.3215C87.567 35.3674 87.4495 35.3879 87.3318 35.3817C87.2563 35.3817 87.1818 35.3648 87.1135 35.3322C87.0451 35.2996 86.9847 35.2521 86.9365 35.1931C86.8283 35.0725 86.7689 34.9148 86.7705 34.7517C86.7684 34.6663 86.7834 34.5813 86.8147 34.502C86.846 34.4226 86.8928 34.3506 86.9523 34.2902C87.0093 34.2297 87.0781 34.182 87.1544 34.1502C87.2307 34.1184 87.3127 34.1032 87.3951 34.1056C87.6225 34.1217 87.8418 34.1975 88.0317 34.3255C88.2216 34.4535 88.3754 34.6294 88.4782 34.836V33.4073H86.5452V33.1665H88.9921V33.4073H88.747Z" fill="#231F20"/>
<path d="M34.9254 20.7741C34.9254 21.2637 34.9017 21.7492 34.8661 22.2308C34.7019 24.2684 34.191 26.2617 33.356 28.122C33.0324 28.8455 32.6599 29.5455 32.2412 30.2169C30.8069 32.5359 28.863 34.4862 26.5619 35.9149C24.2607 37.3435 21.6649 38.2116 18.9779 38.4511C16.2909 38.6907 13.5858 38.2951 11.0746 37.2955C8.5634 36.2959 6.31441 34.7194 4.50395 32.6896C2.69348 30.6598 1.37076 28.2318 0.639464 25.5961C-0.0918269 22.9604 -0.211804 20.1885 0.288938 17.4978C0.789681 14.8071 1.89753 12.2708 3.52564 10.0876C5.15374 7.90437 7.25785 6.13367 9.67299 4.91431C9.20669 5.51537 8.78768 6.15274 8.41986 6.82053C8.38824 6.87671 8.35661 6.92888 8.32894 6.98506C8.09571 7.17769 7.87038 7.38637 7.64901 7.58301C7.42763 7.77966 7.11929 8.09268 6.85839 8.36557C6.80305 8.42577 6.74375 8.48596 6.69236 8.54616C6.64097 8.60635 6.57772 8.67056 6.52633 8.73477C6.47494 8.79898 6.34449 8.94345 6.25356 9.05181C6.07568 9.26851 5.90569 9.48522 5.73966 9.71397C5.01529 10.6882 4.40877 11.7472 3.9331 12.8683C3.88566 12.9806 3.83822 13.093 3.79474 13.2054C3.75126 13.3177 3.69196 13.4702 3.64452 13.6067C3.6173 13.6736 3.59355 13.7419 3.57337 13.8113C3.49826 14.016 3.43105 14.2126 3.36781 14.4294L3.24921 14.8307L3.18992 15.0474C3.15829 15.1878 3.12271 15.3243 3.09109 15.4487C2.98831 15.8941 2.90529 16.3436 2.84204 16.8011C2.84204 16.9175 2.81437 17.0339 2.79856 17.1502C2.78275 17.2666 2.76693 17.3549 2.76693 17.4472C2.76693 17.5395 2.74322 17.7161 2.73531 17.8485C2.73755 17.8591 2.73755 17.87 2.73531 17.8806L2.71159 18.2819C2.71159 18.5107 2.71159 18.7434 2.71159 18.9722C2.71282 22.4086 3.84016 25.7469 5.91602 28.4612C7.99188 31.1756 10.8983 33.1117 14.1773 33.9646C17.4564 34.8175 20.9218 34.5387 24.0277 33.1721C27.1335 31.8056 29.7032 29.4289 31.332 26.4165C31.4743 26.1516 31.6127 25.8827 31.7273 25.6139C31.7252 25.6073 31.7252 25.6003 31.7273 25.5938C32.6157 23.6824 33.1081 21.6063 33.1741 19.4939C33.1741 19.3253 33.1741 19.1568 33.1741 18.9882C33.1741 18.4826 33.1504 17.985 33.103 17.4954L33.1781 17.5556C33.4153 17.7522 33.6406 17.9569 33.8659 18.1736C34.0794 17.8084 34.3047 17.4592 34.5459 17.1181C34.6863 17.8031 34.7867 18.4959 34.8463 19.1929C34.8937 19.7106 34.9175 20.2363 34.9175 20.766" fill="#EB2127"/>
<path d="M33.1822 18.9964C33.1822 19.1649 33.1822 19.3335 33.1822 19.502C33.1529 21.6193 32.6586 23.7032 31.7354 25.6019C31.7354 25.6019 31.7354 25.6019 31.7354 25.622C31.7354 25.642 31.7354 25.622 31.7354 25.622C31.6089 25.8989 31.4745 26.1678 31.3401 26.4246C30.2368 28.4538 28.7013 30.2074 26.8454 31.5574C24.5676 33.222 21.8815 34.2162 19.0829 34.4307C16.2842 34.6451 13.4816 34.0714 10.9835 32.7726C8.4854 31.4739 6.38876 29.5006 4.92443 27.07C3.4601 24.6393 2.68487 21.8456 2.68408 18.9964C2.68408 18.7676 2.68408 18.5349 2.68408 18.3061L2.7078 17.9048C2.71005 17.8942 2.71005 17.8833 2.7078 17.8727C2.7078 17.7363 2.7078 17.5998 2.73943 17.4714C2.77105 17.343 2.73943 17.2868 2.77105 17.1985C2.80268 17.1102 2.79872 16.9657 2.81453 16.8494C2.87778 16.3919 2.9608 15.9424 3.06358 15.4969C3.0952 15.3565 3.13078 15.22 3.16241 15.0956L3.2217 14.8789L3.3403 14.4776C3.40355 14.2689 3.47075 14.0763 3.54586 13.8596C3.56604 13.7902 3.58979 13.7218 3.61701 13.6549C3.66445 13.5225 3.71584 13.3861 3.76723 13.2536C3.81862 13.1212 3.85815 13.0289 3.90559 12.9205C4.38414 11.7855 4.99746 10.7141 5.73192 9.73013C5.89795 9.50138 6.06793 9.28467 6.24582 9.06796C6.33674 8.95961 6.42766 8.85126 6.51859 8.75093C6.60951 8.6506 6.62532 8.62652 6.68462 8.56231L6.85065 8.38173C7.11418 8.11419 7.37772 7.85333 7.64126 7.59917C7.86264 7.39049 8.08796 7.19786 8.3212 7.00122C8.29352 7.0574 8.26585 7.11359 8.23423 7.16977L8.14331 7.32227C7.22563 9.28778 6.66071 11.4037 6.4751 13.5707C6.41976 14.1847 6.38813 14.8107 6.38813 15.4448C6.38813 23.5392 11.0686 30.0966 16.8441 30.0966H16.9152C17.0931 30.0966 17.271 30.0966 17.4528 30.0966C19.894 30.0977 22.2358 29.1153 23.9642 27.3652C25.6926 25.6151 26.6662 23.2403 26.6715 20.7621C26.6715 20.6738 26.6715 20.5896 26.6715 20.5053C26.6061 18.0432 25.5861 15.7068 23.8331 14.0041C27.1892 14.0916 30.4234 15.2989 33.036 17.4393C33.064 17.4584 33.0904 17.4799 33.115 17.5035C33.1625 17.9931 33.1862 18.4907 33.1862 18.9964" fill="#F58220"/>
<path d="M29.0909 9.36082C29.0909 9.36082 16.6387 6.97705 10.7881 17.9649C10.7881 17.9649 11.8238 10.34 20.7183 6.90882L18.9749 3.56993C18.9749 3.56993 22.5327 0.299255 28.7786 1.15003L29.0909 9.36082Z" fill="#EB2127"/>
<path d="M13.6502 15.2161C13.6502 15.2161 18.6232 8.61858 29.9963 10.3362L29.8579 6.48763C29.8579 6.48763 34.6016 6.33513 38.4441 9.6981L33.7082 16.9538C33.7082 16.9538 30.4588 13.1132 23.7188 13.0169C20.2365 12.9374 16.7847 13.6907 13.6423 15.2161" fill="#F58220"/>
<path d="M8.752 21.1875C8.752 21.1875 3.0714 8.60645 16.2747 0.5L19.4372 6.38721C17.8136 7.03321 16.3159 7.96669 15.0137 9.14421C12.5351 11.3233 9.82329 15.0194 8.76782 21.1835" fill="#F58220"/>
<path d="M33.2061 17.5756C33.2496 18.0452 33.2733 18.5227 33.2733 18.9963C33.2733 19.1568 33.2733 19.3173 33.2733 19.4738V19.5059C33.2101 21.6282 32.7162 23.7143 31.8226 25.6339C31.8241 25.6419 31.8241 25.6501 31.8226 25.658C31.704 25.9189 31.5656 26.1877 31.4273 26.4606C30.3088 28.5038 28.7558 30.2682 26.8812 31.6255C24.5914 33.2959 21.8922 34.2928 19.0804 34.5066C16.2686 34.7204 13.4532 34.1428 10.9439 32.8374C8.43452 31.5319 6.32844 29.5492 4.85727 27.1072C3.38611 24.6653 2.60685 21.8587 2.60522 18.9963C2.60522 18.7916 2.60522 18.5709 2.60522 18.306L2.62894 17.8806V17.8445C2.62894 17.688 2.65266 17.5556 2.66452 17.4432C2.67638 17.3308 2.66452 17.2827 2.69219 17.1984V17.1462C2.69219 17.0379 2.71986 16.9295 2.73568 16.8172C2.79893 16.3637 2.88194 15.9062 2.98472 15.4567C3.00844 15.3444 3.03611 15.232 3.06378 15.1236V15.0394C3.08355 14.9671 3.10331 14.8909 3.12703 14.8186C3.15075 14.7464 3.20214 14.5458 3.24563 14.4173C3.31283 14.1886 3.38003 13.9839 3.44723 13.7953C3.44723 13.7311 3.49072 13.6669 3.52234 13.5906C3.57373 13.4462 3.62512 13.3137 3.67256 13.1893C3.72 13.0649 3.75558 12.9806 3.81092 12.8522C4.29222 11.7261 4.90115 10.6608 5.62539 9.67787C5.80328 9.43708 5.97326 9.22037 6.1472 9.0157C6.22231 8.91939 6.31323 8.81505 6.41601 8.69466C6.4674 8.63847 6.52274 8.57025 6.58599 8.50604L6.75202 8.32144C7.00502 8.05256 7.26593 7.7877 7.54264 7.53889C7.81936 7.29007 7.98934 7.13758 8.22257 6.93692L8.30164 6.92087L8.45976 6.78442L8.25815 7.15363V7.17771C8.07631 7.3302 7.89447 7.49073 7.72053 7.65527C7.45172 7.90408 7.19082 8.16493 6.92991 8.43381L6.76388 8.6144L6.59785 8.799L6.32904 9.11603C6.15906 9.3207 5.99303 9.51734 5.81514 9.77418C5.09667 10.7459 4.49423 11.8007 4.02043 12.9164C3.96509 13.0408 3.92161 13.1492 3.88603 13.2455C3.85045 13.3418 3.78325 13.5023 3.73186 13.6468C3.70419 13.7231 3.68047 13.7873 3.6607 13.8475C3.5935 14.0361 3.53025 14.2488 3.45909 14.4655C3.41561 14.6019 3.37608 14.7424 3.3405 14.8668L3.2812 15.0835L3.26144 15.1638C3.23377 15.2721 3.21005 15.3845 3.18238 15.4928C3.0796 15.9383 2.99658 16.3918 2.93728 16.8412C2.93728 16.9496 2.90566 17.0579 2.8938 17.1663V17.2185L2.87008 17.4593C2.87008 17.5756 2.84636 17.7041 2.83846 17.8606V17.8887C2.83846 18.0251 2.83846 18.1656 2.81079 18.29C2.81079 18.5548 2.81079 18.7715 2.81079 18.9762C2.81277 21.8048 3.58221 24.5783 5.0347 26.9922C6.48718 29.4061 8.56657 31.3672 11.0447 32.6603C13.5228 33.9534 16.304 34.5286 19.0829 34.3227C21.8619 34.1168 24.5312 33.1377 26.7982 31.4931C28.6255 30.1461 30.1384 28.4075 31.2296 26.4004C31.3798 26.1275 31.5142 25.8547 31.6249 25.5978V25.5697C32.5096 23.6704 32.9981 21.606 33.0599 19.5059V19.4738C33.0599 19.3173 33.0599 19.1608 33.0599 19.0003C33.0599 18.5027 33.0362 18.005 32.9887 17.5154V17.4312L33.2061 17.5756Z" fill="#F58220"/>
<path d="M13.7766 24.3258L14.2391 24.7271C14.4135 24.6226 14.5676 24.4866 14.6937 24.3258C14.726 24.2902 14.7438 24.2437 14.7438 24.1954C14.7438 24.147 14.726 24.1005 14.6937 24.0649H13.9031C13.8517 24.0649 13.832 24.0649 13.824 24.097C13.7911 24.1641 13.7813 24.2404 13.7964 24.3138" fill="#EB2127"/>
<path d="M14.5237 24.9237L14.8123 25.2769C14.8123 25.1003 14.7806 24.8756 14.7688 24.699C14.6817 24.7677 14.5998 24.8428 14.5237 24.9237" fill="#EB2127"/>
<path d="M13.7488 24.7029C13.7488 24.8634 13.7211 25.1042 13.7053 25.2768L13.9979 24.9236C13.9207 24.8435 13.8374 24.7697 13.7488 24.7029" fill="#EB2127"/>
<path d="M16.9983 18.0734H16.9745C16.6266 18.2549 16.2911 18.46 15.9705 18.6874V18.6874C15.9705 18.6874 15.9705 18.6874 15.9942 18.7316C16.038 18.7842 16.0955 18.8231 16.1602 18.8439C16.2907 18.7677 16.9152 18.3824 17.0852 18.242C17.1024 18.2315 17.1159 18.2157 17.1237 18.197C17.1315 18.1782 17.1333 18.1575 17.1287 18.1376C17.1177 18.114 17.1004 18.094 17.0787 18.0798C17.0571 18.0656 17.0319 18.0578 17.0062 18.0574" fill="#EB2127"/>
<path d="M17.4726 17.7845C17.4726 17.8206 17.4528 17.8768 17.437 17.961C17.4013 18.0927 17.3748 18.2268 17.3579 18.3624C17.4213 18.3202 17.4749 18.2647 17.5151 18.1996C17.5554 18.1345 17.5813 18.0613 17.5911 17.9851C17.6039 17.9554 17.6104 17.9233 17.6104 17.8908C17.6104 17.8584 17.6039 17.8263 17.5911 17.7965C17.5822 17.7864 17.5712 17.7782 17.559 17.7727C17.5467 17.7672 17.5334 17.7643 17.52 17.7644H17.4844" fill="#EB2127"/>
<path d="M17.9075 18.9322C18.1803 18.9322 18.6309 19.5021 18.7337 19.6747C18.8608 20.063 18.9262 20.4694 18.9274 20.8786V20.9267C20.145 20.7702 20.3624 20.5254 20.5087 19.6666C20.5377 19.3058 20.4961 18.9427 20.3862 18.5983C20.2763 18.2539 20.1003 17.935 19.8683 17.6601C19.6734 17.6302 19.476 17.6208 19.2793 17.632C18.7654 17.632 18.0933 17.6601 17.8482 17.6681C17.8461 17.7565 17.8613 17.8443 17.8928 17.9267C17.9243 18.0091 17.9715 18.0844 18.0317 18.1482C18.092 18.2119 18.1641 18.263 18.2439 18.2984C18.3236 18.3338 18.4095 18.3528 18.4965 18.3543C18.5875 18.3744 18.6547 18.3864 18.6665 18.4587V18.547H18.5796H18.374C18.2651 18.5602 18.1547 18.5459 18.0526 18.5053C17.9505 18.4647 17.8599 18.399 17.7889 18.3142C17.6181 18.5071 17.4359 18.6894 17.2434 18.86C17.2434 19.0005 17.2434 19.5342 17.2434 19.767C17.3706 19.81 17.5051 19.8263 17.6387 19.8151H17.7889C17.7889 19.6345 17.8206 19.1851 17.8206 19.0125V18.9322H17.9075Z" fill="#EB2127"/>
<path d="M16.3305 19.1568C16.3092 19.2194 16.3018 19.286 16.3086 19.3518C16.3154 19.4177 16.3364 19.4813 16.37 19.538C16.4323 19.6096 16.51 19.6656 16.597 19.7018C16.6841 19.738 16.7782 19.7534 16.872 19.7467C16.9037 19.4698 16.9195 18.9441 16.9274 18.6511C16.7495 18.8076 16.4412 19.0524 16.3305 19.1568" fill="#EB2127"/>
<path d="M15.9349 19.9995C16.4872 20.4454 17.1157 20.7842 17.7889 20.9988V20.1641C17.6841 20.1389 17.5761 20.1307 17.4687 20.14C17.362 20.14 17.2355 20.14 17.0932 20.14C16.6949 20.1155 16.3187 19.946 16.0338 19.6624L16.014 19.6384V19.6103C16.014 18.9722 15.761 18.912 15.6187 18.8799H15.5792C15.5096 18.8837 15.4422 18.9061 15.3839 18.9449C15.3255 18.9836 15.2784 19.0374 15.2471 19.1006C15.2429 19.1094 15.2407 19.119 15.2407 19.1287C15.2407 19.1384 15.2429 19.148 15.2471 19.1568C15.2669 19.1568 15.3222 19.217 15.4922 19.221C15.6622 19.225 15.7412 19.3855 15.757 19.5661C15.7508 19.6457 15.7618 19.7257 15.7891 19.8005C15.8164 19.8754 15.8594 19.9433 15.9152 19.9995H15.9349Z" fill="#EB2127"/>
<path d="M15.3815 20.12H15.4408V20.1561L15.4804 20.2203C15.5357 20.3166 15.5476 20.3367 15.6029 20.3367C15.6211 20.3164 15.6334 20.2914 15.6385 20.2645C15.654 20.1885 15.6539 20.1101 15.6382 20.0341C15.6226 19.9582 15.5917 19.8863 15.5476 19.823C15.3736 19.5943 15.2788 19.4819 15.0534 19.4739C14.9402 19.5068 14.8357 19.5649 14.7475 19.6441C14.6593 19.7232 14.5896 19.8214 14.5435 19.9314C14.5335 19.9682 14.5368 20.0074 14.5528 20.0419C14.5687 20.0765 14.5962 20.1042 14.6305 20.12C14.7077 20.0457 14.7803 19.9666 14.8479 19.8832L14.9902 19.9635C14.9637 20.0401 14.9637 20.1236 14.9902 20.2002C15.0004 20.2194 15.0144 20.2361 15.0315 20.2492C15.0485 20.2624 15.0681 20.2717 15.089 20.2765C15.1126 20.2805 15.1366 20.2805 15.1602 20.2765C15.1839 20.2765 15.1878 20.2765 15.2076 20.2283C15.2182 20.1925 15.2395 20.161 15.2685 20.138C15.2976 20.1149 15.3329 20.1017 15.3697 20.0999" fill="#EB2127"/>
<path d="M18.1052 19.5662V21.2075C18.2862 21.1605 18.4566 21.0788 18.6073 20.9667C18.544 20.1641 18.3661 19.6504 18.1052 19.5742" fill="#EB2127"/>
<path d="M16.71 20.8906C16.8546 21.1994 17.0453 21.4836 17.2753 21.7334C17.3029 21.7334 17.3899 21.6652 17.5994 21.4043C17.2934 21.2507 16.9964 21.0792 16.71 20.8906" fill="#EB2127"/>
<path d="M18.888 21.2478C18.615 21.4428 18.3135 21.5931 17.9946 21.6933C17.9308 21.7122 17.8687 21.7364 17.8088 21.7655C17.7851 21.788 17.7665 21.8154 17.7542 21.8459C17.7419 21.8764 17.7363 21.9092 17.7376 21.9421C17.7265 21.9746 17.7265 22.0099 17.7376 22.0424C18.229 21.898 18.7087 21.7155 19.1726 21.4966C19.0943 21.3896 18.9911 21.3041 18.8721 21.2478" fill="#EB2127"/>
<path d="M23.2362 26.3283C23.2573 26.4854 23.2705 26.6434 23.2758 26.8019C23.3159 26.7933 23.3536 26.7759 23.3864 26.751C23.4192 26.726 23.4462 26.6941 23.4655 26.6574C23.4924 26.4512 23.5003 26.243 23.4892 26.0353C23.4833 25.9177 23.4833 25.7998 23.4892 25.6822C23.4985 25.6382 23.5117 25.5952 23.5288 25.5538C23.5722 25.4254 23.6592 25.1525 23.592 25.0602C23.592 25.0602 23.5643 25.02 23.4853 25.02H23.09C22.5358 25.033 21.9816 24.9967 21.4336 24.9117C21.032 24.8016 20.6198 24.7356 20.2042 24.715C20.129 24.7083 20.0532 24.7193 19.9828 24.7471C19.791 24.872 19.6386 25.0504 19.544 25.2608V25.321L19.4847 25.3411H19.4413C19.4195 25.3403 19.3982 25.3345 19.379 25.324C19.3598 25.3136 19.3433 25.2988 19.3306 25.2809C19.2831 25.2127 19.291 25.0883 19.3622 24.8796L19.4096 24.7471C19.57 24.3398 19.6802 23.9138 19.7377 23.479C19.3899 23.6395 18.6585 24.0609 18.4648 24.1733C18.5592 24.4688 18.6741 24.7571 18.8088 25.0361C19.1052 25.6621 19.2673 25.8106 19.3069 25.8146C19.4334 25.8146 19.8287 25.7504 20.2833 25.6742C20.9989 25.5358 21.7225 25.4433 22.4496 25.3973C22.5453 25.3935 22.641 25.4029 22.7342 25.4254H22.7579V25.4454L22.8053 25.5096C23.0168 25.7322 23.1633 26.0101 23.2283 26.3123" fill="#EB2127"/>
<path d="M14.4761 21.1112C14.4208 21.1112 14.3298 21.1794 14.3298 21.4323C14.3298 21.4603 14.3575 21.4965 14.3733 21.4965C14.3891 21.4965 14.4168 21.4724 14.4524 21.368V21.3159H16.4724C16.4254 21.2404 16.3844 21.1612 16.3499 21.0791L14.4761 21.1112Z" fill="#EB2127"/>
<path d="M16.2669 17.7964C16.2669 17.7964 15.1995 18.0372 15.2312 17.4834C15.2312 17.2988 15.3537 17.2265 15.4604 17.2466C15.4604 17.1463 15.2509 16.8453 15.7174 16.741C15.8538 16.5735 15.9681 16.3887 16.0574 16.1912C16.1008 16.0507 16.2313 15.8581 16.6543 15.9504C17.0217 16.0584 17.3492 16.275 17.5951 16.5724C17.8402 16.5724 18.0972 16.6206 17.9904 16.6687C17.8837 16.7169 17.8442 16.8132 17.8639 16.8293C17.8837 16.8453 18.0181 16.9216 17.5872 16.9296C17.5872 17.0219 17.6821 17.046 17.7572 17.0901C17.8323 17.1342 17.7374 17.1904 17.7572 17.2105C17.777 17.2306 17.8204 17.4433 17.603 17.359C17.3856 17.2747 17.3698 17.1985 17.3105 17.2065C17.2512 17.2145 17.0931 17.2426 17.1168 17.3028C17.1405 17.363 17.354 17.5035 17.0812 17.5556C17.0259 17.6038 17.1642 17.684 17.0614 17.7242C16.9587 17.7643 16.5001 18.1255 16.2708 18.2178C16.0574 18.2178 15.9902 18.1576 16.0099 18.0653C16.0297 17.973 16.1246 17.9128 16.2629 17.8967C16.2629 17.8365 16.2629 17.7884 16.2432 17.7964" fill="#EB2127"/>
<path d="M14.0453 21.7534H13.1282L13.0649 21.3962H14.0453V21.7534Z" fill="#EB2127"/>
<path d="M20.3032 21.7292H23.7068V21.2075H19.6233L20.3032 21.7292Z" fill="#EB2127"/>
<path d="M16.8204 22.7406H16.8402C17.3249 22.8174 17.8042 22.9259 18.2751 23.0657C18.453 22.9774 18.5598 22.857 18.5598 22.8169L18.5163 22.7005H18.6388C18.7171 22.7122 18.7923 22.7395 18.8602 22.7808C18.9351 22.826 19.0187 22.8547 19.1053 22.865C19.1235 22.8692 19.1424 22.8692 19.1606 22.865C19.575 22.6084 19.9713 22.3228 20.3465 22.0102C20.1411 21.8396 19.9007 21.7176 19.6429 21.6531C19.5394 21.6876 19.4377 21.7278 19.3385 21.7735C18.8727 22.0117 18.3674 22.1601 17.8482 22.2109C17.6918 22.2202 17.5356 22.1898 17.3936 22.1226C17.1957 22.2284 17.0272 22.383 16.9034 22.5721C16.8243 22.6844 16.8164 22.7406 16.8204 22.7527" fill="#EB2127"/>
<path d="M16.9985 23.0616C17.0894 23.0616 18.1212 23.4629 18.3781 23.4108C18.6351 23.3586 18.6865 23.1058 18.8328 23.1218C18.979 23.1379 19.0502 23.2703 19.2992 23.1218C19.5702 22.9323 19.823 22.7173 20.0543 22.4797C20.0543 22.6443 20.0543 23.0937 19.1016 23.5272C18.1489 23.9606 15.9391 24.6027 15.8916 24.9077C16.0843 24.908 16.2732 24.8538 16.4372 24.7511C16.5516 24.8621 16.6371 25 16.686 25.1527C16.735 25.3054 16.7459 25.468 16.7178 25.626C16.6625 26.1076 16.2988 26.9423 16.2988 27.1751C16.2988 27.4078 16.2988 28.4432 16.2988 28.5475C16.2988 28.6519 16.4886 29.2458 16.2079 29.2017C16.0231 29.1652 15.834 29.1558 15.6466 29.1736C15.5359 29.1736 15.3105 29.3782 15.1168 29.3502C14.9231 29.3221 14.5832 29.2217 14.595 29.1254C14.6069 29.0291 14.8283 29.0251 15.018 28.9529C15.2078 28.8806 15.3343 28.6679 15.6979 28.5516C15.6979 28.3027 15.5754 26.5089 15.5754 26.1437C15.5754 25.7785 15.4489 24.9839 15.611 24.6508C15.7731 24.3177 16.6032 23.0456 16.9985 23.0616Z" fill="#EB2127"/>
<path d="M16.8521 21.5768C16.8801 21.6786 16.9316 21.7721 17.0023 21.8497L14.8874 21.7133C14.8874 21.7133 14.6423 21.5568 14.7372 21.5247L16.8521 21.5768Z" fill="#EB2127"/>
<path d="M12.5075 21.7694H12.9424C12.9424 21.7694 13.0807 21.7092 12.9424 21.5407C12.804 21.3721 12.5273 21.2758 12.725 20.9789C12.5233 20.9427 12.219 20.8785 12.2703 21.5407H12.0608C12.0255 21.4211 11.95 21.3178 11.8474 21.2489C11.7449 21.18 11.6218 21.1498 11.4995 21.1635C10.9191 21.2614 10.3523 21.4298 9.81152 21.6651C10.3682 21.828 10.9347 21.954 11.5074 22.0423C11.6206 22.0316 11.7301 21.9954 11.8279 21.9364C11.9257 21.8774 12.0093 21.7971 12.0727 21.7012H12.2545C12.2915 21.8313 12.346 21.9556 12.4166 22.0704C12.4166 22.251 12.4166 22.4717 12.4166 22.4717C12.3561 22.4985 12.3062 22.5451 12.2746 22.6039C12.2431 22.6628 12.2319 22.7307 12.2427 22.7968C12.2703 23.0456 12.4048 23.0376 12.4443 23.0376C12.4838 23.0376 12.5431 22.9573 12.7131 22.9573C12.7509 22.8784 12.7581 22.7879 12.7332 22.7039C12.7083 22.6199 12.6531 22.5484 12.5787 22.5038C12.5787 22.3634 12.5787 22.2069 12.5787 22.2069C12.5787 22.2069 12.7566 22.0945 12.7329 21.9902C12.7091 21.8858 12.5313 21.8938 12.5313 21.7534" fill="#EB2127"/>
<path d="M15.0691 23.8322C15.1631 23.755 15.2309 23.6497 15.2628 23.5312V23.5312C15.2628 23.5312 15.2628 22.552 15.2628 22.2671C15.2628 21.9822 14.7252 21.7334 14.7014 21.7253H14.6698L14.6461 21.7494C14.5642 21.8296 14.4613 21.8839 14.3496 21.9059C14.2846 21.9103 14.2196 21.8983 14.1603 21.871C14.101 21.8437 14.0492 21.8019 14.0097 21.7494H13.9859C13.5551 21.7494 13.3455 22.2791 13.3337 22.2992V22.3193C13.312 22.7082 13.312 23.0981 13.3337 23.4871C13.3737 23.609 13.4383 23.7211 13.5234 23.8162C13.4365 24.1252 12.9977 25.8227 13.5867 26.0153V26.2601H15.0058V25.9993C15.5435 25.7505 15.1995 24.3058 15.0849 23.8844L15.0691 23.8322ZM13.4404 22.2832C13.4681 22.219 13.646 21.8297 13.9583 21.8136C14.0083 21.869 14.0696 21.9127 14.1378 21.9418C14.206 21.9708 14.2796 21.9846 14.3536 21.9822C14.4816 21.9653 14.6015 21.9093 14.6975 21.8217C14.8477 21.8859 15.1521 22.0544 15.1521 22.223C15.1521 22.4959 15.1521 23.3827 15.1521 23.4791C15.1298 23.5624 15.0846 23.6376 15.0216 23.6958H14.741V23.162H13.7922V23.6958H13.5985C13.5229 23.6139 13.465 23.5168 13.4286 23.4108C13.4059 23.0366 13.4059 22.6614 13.4286 22.2872L13.4404 22.2832ZM14.4445 25.8067H14.1282C14.0916 25.8067 14.0564 25.7919 14.0304 25.7655C14.0045 25.7392 13.9899 25.7035 13.9899 25.6662C13.9899 25.6289 14.0045 25.5932 14.0304 25.5669C14.0564 25.5405 14.0916 25.5257 14.1282 25.5257H14.4445C14.4812 25.5257 14.5164 25.5405 14.5423 25.5669C14.5683 25.5932 14.5829 25.6289 14.5829 25.6662C14.5829 25.7035 14.5683 25.7392 14.5423 25.7655C14.5164 25.7919 14.4812 25.8067 14.4445 25.8067ZM14.9505 25.8428L14.2547 25.0402L13.6143 25.8428C13.1835 25.7023 13.4562 24.3539 13.6143 23.7961L14.9544 23.8162C15.1047 24.374 15.3498 25.6261 14.9544 25.8227" fill="#EB2127"/>
<path d="M14.6699 22.9975H14.7568V22.9092C14.7568 22.8858 14.7477 22.8633 14.7314 22.8468C14.7151 22.8302 14.6929 22.8209 14.6699 22.8209H13.8793C13.8675 22.8203 13.8558 22.8222 13.8448 22.8264C13.8337 22.8306 13.8237 22.837 13.8152 22.8453C13.8067 22.8535 13.7999 22.8635 13.7953 22.8744C13.7907 22.8854 13.7883 22.8972 13.7883 22.9092V22.9975H14.6659H14.6699Z" fill="#EB2127"/>
<path d="M13.5196 26.3323H13.4405V26.4286C13.44 26.441 13.4419 26.4535 13.4463 26.4651C13.4506 26.4768 13.4572 26.4875 13.4657 26.4965C13.4742 26.5055 13.4844 26.5126 13.4957 26.5175C13.507 26.5224 13.5192 26.5249 13.5314 26.5249H15.002C15.0272 26.5249 15.0513 26.5148 15.0691 26.4967C15.0869 26.4786 15.0969 26.4541 15.0969 26.4286V26.3323H13.5156H13.5196Z" fill="#EB2127"/>
</g>
<defs>
<clipPath id="clip0_4_2575">
<rect width="89" height="38" fill="white" transform="translate(0 0.5)"/>
</clipPath>
</defs>
</svg>
